<?xml version="1.0" standalone="no"?>
<!DOCTYPE svg PUBLIC "-//W3C//DTD SVG 20010904//EN"
 "http://www.w3.org/TR/2001/REC-SVG-20010904/DTD/svg10.dtd">
<svg version="1.0" xmlns="http://www.w3.org/2000/svg"
 width="512.000000pt" height="512.000000pt" viewBox="0 0 512.000000 512.000000"
 preserveAspectRatio="xMidYMid meet">
<metadata>
Created by potrace 1.11, written by Peter Selinger 2001-2013
</metadata>
<g transform="translate(0.000000,512.000000) scale(0.100000,-0.100000)"
fill="#000000" stroke="none">
<path d="M1334 4839 c-2 -4 -23 -7 -46 -8 -24 0 -54 -3 -68 -6 -33 -7 -100
-17 -125 -19 -11 0 -22 -3 -25 -6 -3 -3 -39 -16 -80 -29 -79 -25 -225 -87
-250 -106 -8 -7 -35 -23 -60 -36 -25 -13 -47 -27 -50 -30 -3 -4 -32 -27 -65
-52 -99 -74 -221 -201 -285 -296 -19 -29 -43 -61 -52 -72 -10 -10 -18 -25 -18
-33 0 -8 -4 -17 -9 -20 -11 -7 -84 -157 -84 -173 0 -7 -5 -13 -10 -13 -6 0 -8
-3 -5 -6 4 -3 -1 -22 -9 -42 -9 -20 -22 -66 -30 -102 -8 -36 -16 -74 -19 -85
-32 -143 -36 -361 -9 -495 3 -14 7 -36 10 -50 9 -48 56 -250 68 -295 1 -5 6
-16 10 -22 5 -7 5 -13 1 -13 -3 0 -1 -7 6 -15 7 -8 10 -15 7 -15 -3 0 1 -16 9
-35 8 -19 11 -35 7 -35 -4 0 -2 -5 5 -12 7 -7 12 -18 12 -25 0 -7 8 -32 19
-56 10 -23 31 -71 46 -107 39 -93 98 -213 112 -228 7 -7 13 -17 13 -22 0 -9
73 -135 151 -260 23 -36 56 -84 76 -107 19 -24 32 -43 29 -43 -6 0 16 -28 42
-55 6 -8 12 -18 12 -23 0 -6 3 -12 8 -14 13 -6 72 -87 72 -99 0 -7 3 -10 6 -6
4 3 23 -16 43 -42 43 -58 124 -151 202 -232 30 -33 53 -59 50 -59 -3 0 8 -10
23 -22 16 -13 39 -34 50 -47 45 -50 240 -232 328 -306 14 -11 49 -41 79 -66
30 -25 81 -65 114 -90 33 -24 66 -50 73 -57 7 -6 17 -12 20 -12 4 0 18 -10 32
-22 14 -13 37 -29 53 -37 15 -8 27 -18 27 -23 0 -4 7 -8 15 -8 9 0 18 -6 21
-14 3 -8 16 -17 30 -20 13 -4 24 -11 24 -16 0 -6 7 -10 15 -10 8 0 15 -4 15
-10 0 -5 7 -10 15 -10 7 0 19 -8 24 -18 6 -9 11 -14 11 -10 0 4 24 -7 53 -24
146 -87 350 -188 451 -223 41 -14 52 -12 171 41 22 10 42 18 45 19 17 2 299
152 310 165 3 3 26 16 53 30 26 13 47 28 47 32 0 5 6 8 14 8 8 0 16 3 18 8 2
4 42 33 90 65 88 59 188 132 221 161 9 9 21 16 26 16 5 0 11 3 13 8 2 4 28 27
58 52 85 70 111 93 147 127 18 18 33 30 33 28 0 -3 17 11 38 31 113 108 191
184 219 216 17 20 34 34 37 31 3 -4 6 -2 6 3 0 6 17 28 38 50 125 134 232 260
232 273 0 6 4 11 8 11 5 0 21 18 38 40 16 22 39 53 52 68 38 46 42 51 42 57 0
3 4 11 10 18 45 54 154 219 223 337 27 47 154 293 156 302 1 5 13 34 27 65 15
32 27 64 27 71 0 6 4 12 9 12 5 0 6 5 3 10 -3 6 -1 10 6 10 7 0 10 3 6 6 -3 4
0 22 8 40 8 19 11 34 8 34 -3 0 0 7 7 15 7 8 9 15 5 15 -4 0 -2 7 5 15 7 8 9
15 5 15 -4 0 -2 7 5 15 7 8 9 15 5 15 -4 0 -3 6 2 13 9 11 26 70 38 135 2 13
6 31 9 40 3 9 7 28 10 42 2 14 11 57 20 97 29 133 37 309 21 433 -8 65 -45
241 -55 265 -9 22 -42 110 -41 110 0 0 -2 10 -5 23 -4 12 -10 22 -15 22 -5 0
-9 9 -9 19 0 11 -7 26 -15 35 -8 8 -15 22 -15 31 0 8 -7 18 -15 21 -8 4 -13 9
-11 13 6 8 -86 145 -139 207 -52 61 -187 194 -196 194 -5 0 -19 11 -33 25 -14
14 -29 25 -34 25 -4 0 -18 9 -30 20 -12 12 -22 18 -22 15 0 -3 -10 3 -22 15
-12 11 -27 20 -34 20 -7 0 -14 3 -16 8 -8 19 -247 117 -313 129 -16 3 -37 9
-45 13 -9 5 -36 11 -60 14 -25 3 -58 8 -74 11 -16 3 -57 7 -91 9 -34 2 -68 7
-75 11 -9 6 -11 4 -5 -4 6 -10 3 -11 -12 -3 -11 7 -25 7 -35 1 -11 -6 -19 -5
-23 1 -5 8 -11 7 -21 -1 -11 -9 -14 -9 -14 0 0 7 -5 9 -12 5 -7 -5 -27 -9 -45
-11 -45 -3 -93 -10 -128 -18 -16 -4 -37 -8 -45 -10 -8 -2 -17 -4 -20 -5 -3 -1
-9 -3 -15 -5 -5 -1 -13 -3 -17 -5 -5 -1 -16 -3 -25 -5 -20 -2 -29 -5 -123 -42
-106 -42 -288 -143 -336 -187 -7 -6 -29 -24 -49 -41 -76 -63 -166 -157 -230
-240 -13 -18 -16 -18 -27 -4 -59 75 -81 99 -135 155 -35 35 -68 64 -74 64 -5
0 -7 5 -4 10 3 6 1 10 -4 10 -10 0 -35 18 -65 46 -16 15 -124 84 -173 111
-119 65 -284 125 -404 147 -13 3 -24 5 -24 6 0 2 -59 8 -125 14 -31 2 -60 5
-65 6 -6 1 -12 1 -15 0 -12 -4 -70 -5 -70 0 0 7 -51 6 -56 -1z"/>
</g>
</svg>
