<?xml version="1.0" standalone="no"?>
<!DOCTYPE svg PUBLIC "-//W3C//DTD SVG 20010904//EN"
 "http://www.w3.org/TR/2001/REC-SVG-20010904/DTD/svg10.dtd">
<svg version="1.0" xmlns="http://www.w3.org/2000/svg"
 width="260.000000pt" height="260.000000pt" viewBox="0 0 260.000000 260.000000"
 preserveAspectRatio="xMidYMid meet">
<metadata>
Created by potrace 1.11, written by Peter Selinger 2001-2013
</metadata>
<g transform="translate(0.000000,260.000000) scale(0.100000,-0.100000)"
fill="#000000" stroke="none">
<path d="M95 2161 c-11 -5 -29 -19 -40 -31 -20 -22 -20 -38 -23 -797 -3 -847
-4 -822 55 -854 41 -22 221 -19 257 4 52 35 56 60 56 367 l0 280 79 0 c71 0
83 -3 111 -26 37 -32 93 -126 230 -386 57 -109 112 -207 122 -218 28 -30 93
-42 203 -38 106 4 134 14 156 56 26 48 14 85 -106 314 -65 123 -139 256 -166
297 -50 75 -57 91 -39 91 24 0 141 125 169 181 128 257 36 612 -186 715 -100
47 -162 54 -523 53 -184 0 -344 -4 -355 -8z m711 -102 c117 -16 192 -62 248
-152 68 -111 79 -318 23 -441 -45 -98 -119 -160 -233 -195 -30 -10 -54 -22
-53 -27 2 -5 20 -21 41 -36 56 -41 128 -151 259 -400 65 -123 119 -226 119
-230 0 -5 -44 -8 -98 -8 l-98 0 -115 217 c-132 251 -189 343 -247 395 -50 45
-84 53 -237 53 l-120 0 -3 -333 -2 -332 -80 0 -80 0 0 750 0 750 299 0 c165 0
334 -5 377 -11z"/>
<path d="M295 1898 c-3 -7 -4 -121 -3 -253 l3 -240 220 0 c244 0 289 7 349 57
61 50 81 99 81 199 0 78 -3 90 -30 135 -24 37 -45 56 -90 79 l-59 30 -233 4
c-191 2 -234 1 -238 -11z m493 -118 c60 -37 78 -119 43 -196 -30 -66 -59 -74
-260 -74 l-171 0 0 145 0 145 178 0 c160 0 180 -2 210 -20z"/>
<path d="M1475 2155 c-63 -31 -60 12 -63 -816 -3 -819 -3 -813 51 -853 28 -20
39 -21 335 -21 289 0 312 2 387 23 106 31 167 66 225 129 59 64 93 132 120
237 25 100 25 192 1 289 -24 92 -38 121 -95 191 l-44 53 28 43 c36 55 70 178
70 255 0 169 -92 343 -222 419 -95 55 -173 66 -482 66 -228 0 -287 -3 -311
-15z m608 -95 c162 -24 269 -135 298 -308 22 -131 -15 -248 -107 -338 l-52
-52 38 -17 c132 -60 205 -232 179 -422 -19 -140 -85 -247 -186 -300 -86 -46
-146 -53 -455 -53 l-278 0 0 750 0 750 248 0 c136 0 278 -5 315 -10z"/>
<path d="M1680 1664 l0 -225 209 3 209 3 44 30 c74 52 105 154 78 265 -15 65
-68 123 -125 139 -23 6 -122 11 -227 11 l-188 0 0 -226z m379 116 c18 -5 39
-17 46 -27 20 -27 27 -97 15 -143 -16 -60 -47 -70 -210 -70 l-130 0 0 125 0
125 123 0 c67 0 137 -4 156 -10z"/>
<path d="M1680 1000 l0 -260 179 0 c98 0 203 5 232 10 72 13 127 53 158 115
22 42 26 63 26 140 0 80 -3 95 -28 137 -59 100 -114 118 -374 118 l-193 0 0
-260z m395 150 c76 -17 115 -89 100 -187 -5 -34 -16 -56 -40 -80 l-33 -33
-161 0 -161 0 0 155 0 155 128 0 c70 0 145 -5 167 -10z"/>
</g>
</svg>
